<svg width="100" height="100" viewBox="0 0 100 100" fill="none" xmlns="http://www.w3.org/2000/svg">
  <path fill-rule="evenodd" clip-rule="evenodd"
        d="M50 100C77.6142 100 100 77.6142 100 50C100 22.3858 77.6142 0 50 0C22.3858 0 0 22.3858 0 50C0 77.6142 22.3858 100 50 100ZM30.9408 25C27.8726 25 25.3853 27.4873 25.3853 30.5556V69.4444C25.3853 72.5127 27.8726 75 30.9408 75C34.0091 75 36.4964 72.5127 36.4964 69.4444V30.5556C36.4964 27.4873 34.0091 25 30.9408 25ZM50.3851 25C47.3169 25 44.8296 27.4873 44.8296 30.5556V69.4444C44.8296 72.5127 47.3169 75 50.3851 75C53.4534 75 55.9407 72.5127 55.9407 69.4444V30.5556C55.9407 27.4873 53.4534 25 50.3851 25ZM64.2739 30.5556C64.2739 27.4873 66.7612 25 69.8295 25C72.8977 25 75.385 27.4873 75.385 30.5556V69.4444C75.385 72.5127 72.8977 75 69.8295 75C66.7612 75 64.2739 72.5127 64.2739 69.4444V30.5556Z"
        fill="white"/>
</svg>
